# xmcd CD database file
#
# Track frame offsets:
#	150
#	19393
#	39107
#	67090
#	94233
#	134425
#	160634
#	190659
#	214147
#	238800
#
# Disc length: 3486 seconds
#
# Revision: 0
# Processed by: cddbd v1.5.2PL0 Copyright (c) Steve Scherf et al.
# Submitted via: CDex 1.51
#
DISCID=880d9c0a
DTITLE=Grover Washington Jr - Soulful Sax
DYEAR=2005
DGENRE=Jazz
TTITLE0=Soulful Strut
TTITLE1=Strawberry Moon
TTITLE2=Summer Nights
TTITLE3=Nice N Easy
TTITLE4=E Precisco Perdoar (One Must Forgive)
TTITLE5=Monte Carlo Nights
TTITLE6=Stella By Starlight
TTITLE7=Only For You (Siempre Para Ti Sere)
TTITLE8=Fly Away
TTITLE9=Play That Groove For Me
EXTD=YEAR: 2005
EXTT0=
EXTT1=
EXTT2=
EXTT3=
EXTT4=
EXTT5=
EXTT6=
EXTT7=
EXTT8=
EXTT9=
PLAYORDER=
